<svg width="25" height="24" viewBox="0 0 25 24" fill="none" xmlns="http://www.w3.org/2000/svg">
<path d="M12.489 3.6951e-08C9.17671 3.6951e-08 6.00009 1.23458 3.65794 3.43214C1.3158 5.62971 0 8.61025 0 11.7181C0 14.8259 1.3158 17.8064 3.65794 20.004C6.00009 22.2016 9.17671 23.4361 12.489 23.4361C12.865 23.4361 13.2397 23.4205 13.613 23.3892C13.96 23.3601 14.304 23.3151 14.645 23.2598L14.776 23.2382C17.8371 22.7034 20.5748 21.1151 22.4525 18.7847C24.3302 16.4542 25.2124 13.5497 24.9261 10.6406C24.6398 7.73153 23.2057 5.0277 20.9049 3.05926C18.6041 1.09083 15.6027 -0.000231838 12.489 3.6951e-08ZM11.489 22.6123H11.46C11.136 22.5851 10.815 22.5448 10.496 22.4932L10.442 22.4847C10.1307 22.4322 9.82233 22.3677 9.517 22.2915L9.443 22.2736C9.143 22.1976 8.851 22.1104 8.561 22.0128L8.471 21.9828C8.187 21.8889 7.907 21.7745 7.632 21.6562L7.532 21.6131C7.262 21.4958 6.998 21.3644 6.738 21.2256L6.628 21.1674C6.37267 21.0279 6.123 20.8787 5.879 20.7198L5.768 20.6476C5.528 20.4872 5.293 20.3173 5.068 20.14L5 20.0884V16.7951C5.00159 15.6561 5.48453 14.5641 6.34291 13.7587C7.2013 12.9533 8.36506 12.5002 9.579 12.4987H15.4C16.6145 12.4995 17.779 12.9523 18.638 13.7578C19.4971 14.5632 19.9804 15.6555 19.982 16.7951V20.0884L19.927 20.1316C19.6943 20.3136 19.4553 20.4862 19.21 20.6495L19.11 20.7123C18.8627 20.8737 18.609 21.0257 18.349 21.1683L18.249 21.2199C17.986 21.3607 17.718 21.493 17.449 21.6131L17.354 21.6525C17.077 21.7726 16.795 21.8833 16.509 21.9818L16.426 22.01C16.135 22.1038 15.839 22.1976 15.54 22.2727L15.468 22.2896C15.162 22.3656 14.854 22.4303 14.542 22.4829L14.488 22.4904C14.169 22.5429 13.847 22.5842 13.523 22.6105H13.494C13.161 22.6377 12.828 22.6518 12.494 22.6518C12.16 22.6518 11.821 22.6396 11.489 22.6133V22.6123ZM20.818 19.364V16.7951C20.8161 15.448 20.2445 14.1566 19.2286 13.2047C18.2128 12.2528 16.8357 11.7181 15.4 11.7181H9.575C8.14031 11.7196 6.76482 12.255 5.75025 13.2066C4.73567 14.1584 4.16485 15.4489 4.163 16.7951V19.364C2.55677 17.8258 1.47031 15.8768 1.03984 13.7615C0.609375 11.6463 0.854068 9.45881 1.74324 7.47348C2.63241 5.48816 4.12648 3.79332 6.0381 2.60149C7.94973 1.40965 10.1938 0.773878 12.489 0.773878C14.7842 0.773878 17.0283 1.40965 18.9399 2.60149C20.8515 3.79332 22.3456 5.48816 23.2348 7.47348C24.1239 9.45881 24.3686 11.6463 23.9382 13.7615C23.5077 15.8768 22.4212 17.8258 20.815 19.364H20.818Z" fill="white"/>
</svg>
